<svg width="18.86" height="20.57" viewBox="0 0 20 22" fill="current" xmlns="http://www.w3.org/2000/svg">
<path d="M4.71443 17.0001L4.71443 18.2858C4.71443 19.3084 3.691 19.5261 3.39443 19.5681C2.701 19.5492 2.143 18.9826 2.143 18.2858L2.143 2.42864L15.0001 2.42864L15.0001 15.2858H16.7144L16.7144 1.5715C16.7144 1.09836 16.3304 0.714355 15.8573 0.714355L1.28585 0.714355C0.812711 0.714355 0.428711 1.09836 0.428711 1.5715L0.428711 18.2858C0.428711 19.9401 1.77443 21.2858 3.42871 21.2858L16.2859 21.2858C17.9401 21.2858 19.2859 19.9401 19.2859 18.2858V17.0001L4.71443 17.0001Z" fill="black"/>
<path d="M12.4286 5L4.71436 5V6.71429L12.4286 6.71429V5Z" fill="black"/>
<path d="M12.4286 8.42847L4.71436 8.42847V10.1428L12.4286 10.1428V8.42847Z" fill="black"/>
<path d="M12.4286 11.8572L4.71436 11.8572V13.5715L12.4286 13.5715V11.8572Z" fill="black"/>
</svg>
