<svg width="20.57" height="18.86" viewBox="0 0 22 20" fill="current" xmlns="http://www.w3.org/2000/svg">
<path d="M20.9711 8.47932L11.5426 0.765033C11.2271 0.507033 10.7728 0.507033 10.4574 0.765033L1.02884 8.47932C0.667125 8.78446 0.620839 9.32532 0.926839 9.68703C1.22512 10.041 1.75141 10.0933 2.11398 9.80618L3.2857 8.84789L3.2857 18.5713C3.2857 19.0445 3.6697 19.4285 4.14284 19.4285L9.2857 19.4285L9.2857 15.5713C9.2857 15.3347 9.4777 15.1427 9.71427 15.1427L12.2857 15.1427C12.5223 15.1427 12.7143 15.3347 12.7143 15.5713L12.7143 19.4285H17.8571C18.3303 19.4285 18.7143 19.0445 18.7143 18.5713V8.84789L19.886 9.80618C20.2477 10.1113 20.7886 10.0659 21.0937 9.70418C21.3988 9.34246 21.3534 8.80161 20.9917 8.49646C20.9848 8.49046 20.978 8.48532 20.9711 8.48018V8.47932ZM12.2857 11.7142L9.71427 11.7142C9.4777 11.7142 9.2857 11.5222 9.2857 11.2856V8.71418C9.2857 8.47761 9.4777 8.28561 9.71427 8.28561L12.2857 8.28561C12.5223 8.28561 12.7143 8.47761 12.7143 8.71418V11.2856C12.7143 11.5222 12.5223 11.7142 12.2857 11.7142Z" fill="black"/>
</svg>
