<svg width="23" height="22" viewBox="0 0 23 22" fill="current" xmlns="http://www.w3.org/2000/svg">
<path d="M15.1563 6.57465L15.2727 6.81022L15.5327 6.84796L21.597 7.7281C22.4612 7.85351 22.8045 8.91295 22.1806 9.52036L17.7923 13.7926L17.6038 13.9762L17.6483 14.2355L18.6843 20.2681C18.6843 20.2682 18.6843 20.2682 18.6843 20.2682C18.8315 21.1253 17.9301 21.7819 17.1566 21.3757L11.7324 18.5275L11.5 18.4054L11.2675 18.5275L5.84341 21.3757L6.07586 21.8184L5.8434 21.3757C5.06989 21.7819 4.1685 21.1253 4.31569 20.2682L5.35162 14.2355L5.39615 13.9762L5.20762 13.7926L0.819397 9.52035L0.471287 9.87791L0.819393 9.52035C0.1955 8.91296 0.538823 7.85352 1.40298 7.7281L7.46735 6.84796L7.72739 6.81022L7.8438 6.57464L10.5558 1.08601C10.9419 0.304663 12.058 0.304663 12.4441 1.08601L12.8924 0.864514L12.4441 1.08602L15.1563 6.57465ZM11.9482 1.71873L11.5 0.811563L11.0517 1.71874L8.45424 6.97551L8.9025 7.19701L8.45424 6.97551C8.30103 7.28558 8.0047 7.50078 7.66155 7.55059L1.85339 8.39353L0.849809 8.53918L1.5764 9.24659L5.77924 13.3385L5.77927 13.3385C6.02727 13.5799 6.14031 13.9276 6.08181 14.2683C6.08181 14.2683 6.08181 14.2683 6.08181 14.2683L5.08966 20.0461L4.91826 21.0442L5.8149 20.5734L11.0099 17.8454L11.0099 17.8454C11.3167 17.6843 11.6832 17.6843 11.99 17.8454L11.9901 17.8454L17.1851 20.5734L18.0817 21.0442L17.9103 20.0461L16.9182 14.2683C16.8597 13.9276 16.9728 13.5799 17.2207 13.3385L21.4236 9.2466L22.1502 8.53918L21.1466 8.39353L15.3384 7.55059C15.3384 7.55059 15.3384 7.55059 15.3384 7.55059C14.9953 7.50078 14.699 7.28559 14.5458 6.97555L14.5458 6.9755L11.9482 1.71873Z" fill="#565D6D" stroke="black"/>
</svg>
