<svg xmlns="http://www.w3.org/2000/svg" width="38" height="38" viewBox="0 0 38 38" fill="none">
  <path d="M26.9165 21.3751C26.9165 20.0634 25.8531 19.0001 24.5415 19.0001H13.4582C12.1465 19.0001 11.0832 20.0634 11.0832 21.3751V22.1667C11.0832 25.2881 14.0274 28.5001 18.9998 28.5001C23.9723 28.5001 26.9165 25.2881 26.9165 22.1667V21.3751ZM23.354 13.0626C23.354 10.6578 21.4046 8.70841 18.9998 8.70841C16.5951 8.70841 14.6457 10.6578 14.6457 13.0626C14.6457 15.4673 16.5951 17.4167 18.9998 17.4167C21.4046 17.4167 23.354 15.4673 23.354 13.0626ZM34.8332 19.0001C34.8332 27.7445 27.7443 34.8334 18.9998 34.8334C10.2553 34.8334 3.1665 27.7445 3.1665 19.0001C3.1665 10.2556 10.2553 3.16675 18.9998 3.16675C27.7443 3.16675 34.8332 10.2556 34.8332 19.0001ZM32.4582 19.0001C32.4582 11.5673 26.4326 5.54175 18.9998 5.54175C11.567 5.54175 5.5415 11.5673 5.5415 19.0001C5.5415 26.4329 11.567 32.4584 18.9998 32.4584C26.4326 32.4584 32.4582 26.4329 32.4582 19.0001Z" fill="#A8A8A8"/>
</svg>