<svg width="17.5" height="17.5" viewBox="0 0 24 19" fill="current" xmlns="http://www.w3.org/2000/svg">
<g filter="url(#filter0_d_38_133)">
<path d="M11.7476 0C12.1273 0 12.4412 0.28201 12.4909 0.64808L12.4978 0.74985L12.499 8H19.7521C20.1663 8 20.5021 8.3358 20.5021 8.75C20.5021 9.1297 20.2199 9.4435 19.8539 9.4932L19.7521 9.5H12.499L12.501 16.7491C12.5011 17.1633 12.1654 17.4993 11.7512 17.4993C11.3715 17.4993 11.0576 17.2173 11.0079 16.8512L11.001 16.7494L10.999 9.5H3.75C3.33578 9.5 3 9.1642 3 8.75C3 8.3703 3.28215 8.0565 3.64823 8.0068L3.75 8H10.999L10.9978 0.75015C10.9977 0.33594 11.3334 0 11.7476 0Z" fill="#565D6D"/>
<path d="M11.7512 16.9993C11.6291 16.9993 11.5269 16.9115 11.5053 16.7961L11.501 16.7324L11.499 9.49986L11.4989 9H10.999H3.75C3.61193 9 3.5 8.88807 3.5 8.75C3.5 8.62813 3.58763 8.52593 3.70319 8.50424L3.76669 8.5H10.999H11.4991L11.499 7.99992L11.4978 0.750067V0.750029C11.4978 0.611866 11.6097 0.5 11.7476 0.5C11.8697 0.5 11.9719 0.58779 11.9935 0.703231L11.9978 0.766819L11.999 8.00008L11.9991 8.5H12.499H19.7521C19.8902 8.5 20.0021 8.61194 20.0021 8.75C20.0021 8.87185 19.9144 8.97407 19.7989 8.99576L19.7354 9H12.499H11.9989L11.999 9.50014L12.001 16.7492C12.001 16.8874 11.889 16.9993 11.7512 16.9993Z" stroke="black"/>
</g>
<defs>
<filter id="filter0_d_38_133" x="-1" y="0" width="25.502" height="25.4993" filterUnits="userSpaceOnUse" color-interpolation-filters="sRGB">
<feFlood flood-opacity="0" result="BackgroundImageFix"/>
<feColorMatrix in="SourceAlpha" type="matrix" values="0 0 0 0 0 0 0 0 0 0 0 0 0 0 0 0 0 0 127 0" result="hardAlpha"/>
<feOffset dy="4"/>
<feGaussianBlur stdDeviation="2"/>
<feComposite in2="hardAlpha" operator="out"/>
<feColorMatrix type="matrix" values="0 0 0 0 0 0 0 0 0 0 0 0 0 0 0 0 0 0 0.25 0"/>
<feBlend mode="normal" in2="BackgroundImageFix" result="effect1_dropShadow_38_133"/>
<feBlend mode="normal" in="SourceGraphic" in2="effect1_dropShadow_38_133" result="shape"/>
</filter>
</defs>
</svg>
