<svg width="18" height="18" viewBox="0 0 18 18" fill="current" xmlns="http://www.w3.org/2000/svg">
<path d="M8.7512 16.9993C8.62906 16.9993 8.5269 16.9115 8.50531 16.7961L8.50099 16.7324L8.499 9.49986L8.49886 9H7.999H0.75C0.611931 9 0.5 8.88807 0.5 8.75C0.5 8.62813 0.587633 8.52593 0.703191 8.50424L0.76669 8.5H7.999H8.49908L8.499 7.99992L8.4978 0.750067V0.750029C8.49777 0.611866 8.60973 0.5 8.7476 0.5C8.86974 0.5 8.9719 0.58779 8.99349 0.703231L8.9978 0.766819L8.999 8.00008L8.99908 8.5H9.499H16.7521C16.8902 8.5 17.0021 8.61194 17.0021 8.75C17.0021 8.87185 16.9144 8.97407 16.7989 8.99576L16.7354 9H9.499H8.99886L8.999 9.50014L9.001 16.7492C9.00103 16.8874 8.88902 16.9993 8.7512 16.9993Z" fill="#565D6D" stroke="black"/>
</svg>
