<svg width="157" height="166" viewBox="0 0 157 166" fill="none" xmlns="http://www.w3.org/2000/svg">
<path d="M52 145.956L57.5923 126.354C58.3275 123.777 60.6823 122 63.3621 122H69.8464C73.2195 122 75.9297 124.78 75.8445 128.152L75.0368 160.09C74.954 163.368 72.255 165.973 68.9762 165.938L31.5723 165.548C29.7081 165.529 28.3031 163.822 28.857 162.042C32.664 149.806 43.4012 143.565 52 145.956Z" fill="#A4ED91"/>
<path d="M100.5 145.956L95.5312 126.514C94.8524 123.858 92.4596 122 89.7181 122H85.1375C81.7705 122 79.0627 124.77 79.139 128.136L79.8623 160.067C79.9368 163.354 82.6429 165.969 85.9306 165.931L118.5 165.552C120.339 165.53 121.737 163.864 121.246 162.091C117.847 149.823 108.213 143.561 100.5 145.956Z" fill="#A4ED91"/>
<path d="M56.3695 41.5683C61.9329 29.8231 64.7146 23.9505 68.2882 21.6339C73.1486 18.4831 79.3886 18.4123 84.3192 21.4519C87.9445 23.6869 90.8588 29.4949 96.6873 41.1108L97.9725 43.6722C99.6312 46.9779 100.46 48.6307 101.591 49.977C103.157 51.8433 105.155 53.2998 107.411 54.2205C109.039 54.8847 110.866 55.1687 114.521 55.7366V55.7366C126.547 57.6055 132.56 58.5399 135.733 61.1549C140.139 64.786 142.102 70.6037 140.796 76.1618C139.856 80.1646 135.637 84.5507 127.201 93.3229L125.569 95.0197C123.568 97.1002 122.568 98.1404 121.812 99.2857C120.22 101.697 119.359 104.517 119.331 107.407C119.318 108.779 119.566 110.201 120.063 113.044V113.044C121.882 123.453 122.791 128.658 121.902 131.898C119.99 138.865 113.384 143.479 106.185 142.877C102.836 142.596 98.1444 139.883 88.7605 134.456V134.456C85.717 132.696 84.1952 131.816 82.6602 131.324C79.6395 130.355 76.3896 130.37 73.3776 131.364C71.8469 131.87 70.3334 132.763 67.3063 134.549V134.549C56.8694 140.707 51.6509 143.786 47.725 143.869C41.604 143.997 36.0193 140.393 33.6151 134.763C32.0731 131.151 32.715 125.259 33.9989 113.475L34.2092 111.544C34.5874 108.072 34.7766 106.336 34.5847 104.668C34.3561 102.679 33.7318 100.757 32.7487 99.0133C31.9237 97.5504 30.7509 96.2567 28.4052 93.6694L27.5405 92.7156C18.889 83.1728 14.5632 78.4014 13.9017 73.8825C13.2227 69.2434 14.7518 64.5536 18.0349 61.2064C21.2329 57.946 27.6678 56.615 40.5376 53.9529V53.9529C44.1499 53.2058 45.956 52.8322 47.5215 52.1087C49.6489 51.1256 51.5163 49.6576 52.974 47.8226C54.0467 46.4722 54.821 44.8376 56.3695 41.5683V41.5683Z" fill="url(#paint0_linear_41_139)"/>
<circle cx="66" cy="78" r="4" fill="#1A1A1A"/>
<ellipse cx="86.5" cy="78" rx="3.5" ry="4" fill="#1A1A1A"/>
<path d="M70 97.1452C75.0808 98.5315 86.994 99.2432 94 91" stroke="black" stroke-width="4" stroke-linecap="round" stroke-linejoin="round"/>
<defs>
<linearGradient id="paint0_linear_41_139" x1="78.5" y1="14.199" x2="78.5" y2="157" gradientUnits="userSpaceOnUse">
<stop stop-color="#FFF960"/>
</linearGradient>
</defs>
</svg>
